<svg width="1440" height="2315" viewBox="0 0 1440 2315" fill="none" xmlns="http://www.w3.org/2000/svg">
<g clip-path="url(#clip0_2002_1525)">
<rect width="1440" height="2315" fill="white"/>
<path d="M457.999 1761C441.053 1682.32 395.583 1505.63 385 1354.5C372.5 1176 226 1162.5 0 1154L-3.71617e-05 2314.74L1439.86 2314.74C1439.19 2139.57 1438.26 1762.84 1439.86 1657.24C1441.86 1525.24 1331 1275.5 1022.36 1312.24C703.651 1350.18 762.499 1541.5 762.499 1761C762.499 1903.81 479 1858.5 457.999 1761Z" fill="#B0C4F7"/>
<path d="M1126.02 774.728C1335.51 807.237 1354.84 788.399 1440 778.729V0H436.059C419.56 43.5128 410.56 82.5243 419.56 134.039C431.119 200.207 449.487 225.746 509.055 260.577C580.051 302.089 723.542 258.076 813.037 251.074C902.531 244.072 985.027 283.083 987.027 334.598C989.027 386.114 845.545 355.967 789.538 401.618C722.042 456.634 724.542 580.671 873.033 667.196C1021.52 753.722 1086.64 768.617 1126.02 774.728Z" fill="#B0C4F7"/>
</g>
<defs>
<clipPath id="clip0_2002_1525">
<rect width="1440" height="2315" fill="white"/>
</clipPath>
</defs>
</svg>
