<svg width="16" height="16" viewBox="0 0 16 16" fill="none" xmlns="http://www.w3.org/2000/svg">
<g clip-path="url(#clip0_15_4765)">
<path d="M2.18334 10.1973C1.61667 9.46129 1.33334 9.09263 1.33334 7.99996C1.33334 6.90663 1.61667 6.53929 2.18334 5.80263C3.31467 4.33329 5.212 2.66663 8 2.66663C10.788 2.66663 12.6853 4.33329 13.8167 5.80263C14.3833 6.53996 14.6667 6.90729 14.6667 7.99996C14.6667 9.09329 14.3833 9.46063 13.8167 10.1973C12.6853 11.6666 10.788 13.3333 8 13.3333C5.212 13.3333 3.31467 11.6666 2.18334 10.1973Z" stroke="black" stroke-width="1.5"/>
<path d="M10 8C10 8.53043 9.78929 9.03914 9.41422 9.41421C9.03914 9.78929 8.53043 10 8 10C7.46957 10 6.96086 9.78929 6.58579 9.41421C6.21072 9.03914 6 8.53043 6 8C6 7.46957 6.21072 6.96086 6.58579 6.58579C6.96086 6.21071 7.46957 6 8 6C8.53043 6 9.03914 6.21071 9.41422 6.58579C9.78929 6.96086 10 7.46957 10 8Z" stroke="black" stroke-width="1.5"/>
</g>
<defs>
<clipPath id="clip0_15_4765">
<rect width="16" height="16" fill="white"/>
</clipPath>
</defs>
</svg>
