<svg width="16" height="16" viewBox="0 0 16 16" fill="none" xmlns="http://www.w3.org/2000/svg">
<path d="M8 14C9.33128 13.9998 10.6247 13.5569 11.6766 12.7409C12.7285 11.925 13.4792 10.7823 13.8104 9.49293C14.1417 8.20352 14.0347 6.84056 13.5063 5.61863C12.9779 4.3967 12.0582 3.3852 10.8918 2.74337C9.72548 2.10154 8.37881 1.86583 7.06381 2.07336C5.7488 2.28088 4.54016 2.91986 3.62817 3.88968C2.71617 4.8595 2.15261 6.10509 2.02622 7.43035C1.89982 8.75562 2.21777 10.0853 2.93 11.21L2 14L4.79 13.07C5.74972 13.6791 6.86331 14.0017 8 14Z" stroke="black" stroke-width="1.33333" stroke-linecap="round" stroke-linejoin="round"/>
</svg>
