<svg width="1440" height="2905" viewBox="0 0 1440 2905" fill="none" xmlns="http://www.w3.org/2000/svg">
<g clip-path="url(#clip0_2001_1980)">
<rect width="1440" height="2905" fill="white"/>
<path d="M-2 1.5V727C24.3333 714.167 117.6 685.7 280 674.5C483 660.5 583.5 762 717 778.5C850.5 795 951 646 923 542C893.685 433.115 822.267 435.747 785.5 338C744.5 229 841 158 923 151C1005 144 1112.51 141.907 1146 132.5C1190.5 120 1235.5 74 1235.5 24.5C1235.5 5.5 1228 0.5 1228 0L-2 1.5Z" fill="#B0C4F7"/>
<path d="M1356.5 1331.5C1437.5 1402.5 1389.17 1364 1443.5 1407V2908.5C1268.33 2907.83 891.6 2906.9 786 2908.5C654 2910.5 391 2710.5 441 2491C512.286 2178.06 786 2260 958 2204C1093.79 2159.79 1085.5 2006.5 958 1899.5C896.351 1847.76 718.792 1772.14 666.5 1712.5C602.5 1639.5 467.078 1568.2 457 1397.5C441 1126.5 772.12 1105.84 858 1114C1137 1140.5 1255.59 1243.05 1356.5 1331.5Z" fill="#B0C4F7"/>
</g>
<defs>
<clipPath id="clip0_2001_1980">
<rect width="1440" height="2905" fill="white"/>
</clipPath>
</defs>
</svg>
