<svg width="1440" height="4435" viewBox="0 0 1440 4435" fill="none" xmlns="http://www.w3.org/2000/svg">
<g clip-path="url(#clip0_1_14)">
<rect width="1440" height="4435" fill="white"/>
<path d="M240.696 4028.3C359.515 4042.26 405.375 4064.45 467.921 4136.41C527.915 4205.43 488.432 4331.18 464.179 4434L1.79217e-05 4434L1.0592e-06 4048.23C78.1365 4028.3 148.19 4017.43 240.696 4028.3Z" fill="#B0C4F7"/>
<path d="M556.749 2855.49C781.876 2961.15 869.056 2948.03 1042.5 2877C1201.31 2811.97 1342.9 2689.87 1440 2554V3554.96C1390.03 3548.65 1325.75 3559.74 1243.91 3630.41C1123.71 3734.2 1098.7 3881 1002.65 3881C810.285 3881 830.127 3716.68 859.179 3669.92C1153.49 3196.24 728.991 3282.38 509.5 3351.5C7.54857 3509.56 0.474716 3131.47 52.5 3002C118 2839 402.212 2782.96 556.749 2855.49Z" fill="#B0C4F7"/>
<path d="M1126.02 774.728C1335.51 807.237 1354.84 788.399 1440 778.729V0H436.059C419.56 43.5128 410.561 82.5243 419.56 134.039C431.119 200.207 449.487 225.746 509.055 260.577C580.051 302.089 723.542 258.076 813.037 251.074C902.532 244.072 985.027 283.083 987.027 334.598C989.027 386.114 845.545 355.967 789.538 401.618C722.042 456.634 724.542 580.671 873.033 667.196C1021.52 753.722 1086.64 768.617 1126.02 774.728Z" fill="#B0C4F7"/>
<path d="M534.707 940.762C404.601 828.48 343.32 801.893 305.729 788.661C132.51 727.689 68.9543 730.739 -0.514659 728.666L-0.51466 1974.05C25.8352 1992.48 57.0344 2012.52 93.9854 2036.5C322.44 2184.78 857.484 2097.04 937.984 2076.5C1018.48 2055.96 1119.48 1967.5 1100.98 1868.5C1082.48 1769.5 943.207 1733.85 881.484 1703C731.796 1628.2 740.347 1638.07 568.069 1571.58C395.791 1505.1 403.484 1396.5 440.939 1344.09C470.903 1302.15 504.635 1251.66 568.069 1217.08C644.515 1175.4 664.812 1053.04 534.707 940.762Z" fill="#B0C4F7"/>
</g>
<defs>
<clipPath id="clip0_1_14">
<rect width="1440" height="4435" fill="white"/>
</clipPath>
</defs>
</svg>
